<?xml version="1.0" standalone="no"?>
<!DOCTYPE svg PUBLIC "-//W3C//DTD SVG 20010904//EN"
 "http://www.w3.org/TR/2001/REC-SVG-20010904/DTD/svg10.dtd">
<svg version="1.0" xmlns="http://www.w3.org/2000/svg"
 width="16.000000pt" height="16.000000pt" viewBox="0 0 16.000000 16.000000"
 preserveAspectRatio="xMidYMid meet">
<metadata>
Created by potrace 1.11, written by Peter Selinger 2001-2013
</metadata>
<g transform="translate(0.000000,16.000000) scale(0.004000,-0.004000)"
fill="#000000" stroke="none">
<path d="M1970 3204 c-90 -30 -237 -100 -302 -144 l-48 -32 -37 29 c-45 35
-141 78 -203 92 -25 5 -58 13 -75 16 -51 12 -316 14 -384 4 -223 -33 -394
-144 -474 -309 -42 -85 -57 -152 -57 -252 0 -196 112 -385 278 -471 37 -19 79
-37 94 -41 26 -6 40 -26 19 -26 -18 0 -140 -131 -159 -172 -55 -113 -15 -239
97 -308 22 -14 41 -27 41 -31 0 -3 -24 -13 -53 -24 -112 -40 -225 -101 -273
-149 -33 -34 -76 -106 -89 -150 -82 -291 114 -512 509 -570 104 -16 332 -18
421 -5 33 5 80 11 105 15 48 7 173 45 230 71 19 9 60 33 90 53 151 103 222
234 214 398 -5 111 -33 176 -108 255 -98 102 -225 157 -559 243 -415 107 -476
153 -399 304 l27 55 165 -2 c301 -3 478 56 606 201 94 107 134 234 128 404 -3
100 -32 212 -69 269 l-15 23 185 0 185 0 20 40 c11 21 20 53 20 69 0 49 -20
129 -38 151 -17 19 -17 19 -92 -6z m-720 -199 c37 -14 71 -36 105 -70 70 -70
99 -152 102 -295 3 -121 -7 -171 -46 -255 -64 -135 -165 -187 -350 -181 -85 3
-106 7 -164 35 -128 61 -190 183 -191 371 0 301 112 421 389 416 70 -1 117 -8
155 -21z m10 -1584 c53 -15 220 -91 220 -100 0 -4 13 -15 30 -24 75 -45 111
-187 75 -297 -43 -130 -168 -190 -400 -195 -157 -3 -264 14 -352 56 -137 66
-196 169 -189 333 6 126 55 218 158 294 l50 37 182 -46 c99 -25 201 -52 226
-58z"/>
<path d="M2829 3176 c-2 -2 -26 -6 -54 -10 -126 -16 -235 -47 -355 -103 -111
-52 -109 -48 -94 -146 14 -95 37 -195 66 -285 l20 -63 45 3 45 3 38 95 c20 52
57 146 81 208 40 104 46 115 78 128 49 20 225 29 281 14 122 -32 188 -125 216
-305 9 -57 6 -327 -3 -336 -5 -5 -42 -11 -83 -13 -41 -3 -100 -8 -130 -11 -30
-4 -73 -8 -95 -10 -404 -35 -621 -160 -674 -390 -13 -59 -17 -172 -7 -235 18
-108 93 -222 192 -290 99 -69 288 -98 418 -64 176 46 319 179 367 342 7 23 16
39 20 35 4 -4 10 -65 14 -134 3 -70 14 -155 23 -190 l18 -64 74 1 c41 1 102
10 135 20 33 10 65 19 70 20 22 5 101 35 156 60 55 25 59 29 59 60 0 39 -3 40
-137 59 -53 7 -99 19 -103 25 -11 18 -14 127 -10 365 2 121 4 357 4 525 1 326
-3 360 -56 464 -52 101 -169 183 -302 210 -58 12 -307 21 -317 12z m367 -1136
l2 -175 -36 -68 c-40 -77 -126 -162 -201 -198 -67 -33 -217 -34 -279 -1 -106
56 -154 157 -147 307 6 119 62 203 169 250 89 39 244 62 406 61 l85 -1 1 -175z"/>
</g>
</svg>
